<?xml version="1.0" standalone="no"?>
<!DOCTYPE svg PUBLIC "-//W3C//DTD SVG 20010904//EN"
 "http://www.w3.org/TR/2001/REC-SVG-20010904/DTD/svg10.dtd">
<svg version="1.0" xmlns="http://www.w3.org/2000/svg"
 width="2400.000000pt" height="2400.000000pt" viewBox="0 0 2400.000000 2400.000000"
 preserveAspectRatio="xMidYMid meet">
<metadata>
Created by potrace 1.14, written by Peter Selinger 2001-2017
</metadata>
<g transform="translate(0.000000,2400.000000) scale(0.100000,-0.100000)"
fill="#000000" stroke="none">
<path d="M11405 17982 c-29 -6 -46 -23 -41 -41 3 -9 7 -50 10 -91 4 -41 8 -93
11 -115 3 -22 7 -60 10 -85 2 -25 7 -64 10 -88 5 -39 3 -44 -25 -60 -16 -9
-30 -20 -30 -24 0 -5 -5 -8 -10 -8 -6 0 -51 -27 -100 -60 -49 -33 -94 -60
-100 -60 -5 0 -10 -5 -10 -10 0 -6 -8 -14 -17 -17 -17 -6 -152 -92 -163 -103
-11 -11 -150 -100 -153 -98 -1 2 -9 -3 -17 -10 -46 -39 -68 -55 -102 -74 -21
-12 -38 -25 -38 -30 0 -4 -5 -8 -10 -8 -6 0 -28 -12 -49 -27 -41 -30 -46 -33
-131 -91 -97 -65 -425 -296 -430 -302 -3 -3 -18 -14 -35 -24 -16 -11 -37 -25
-45 -33 -8 -7 -47 -36 -87 -64 l-71 -51 4 -127 c4 -137 12 -279 19 -326 2 -18
16 -40 37 -57 47 -38 158 -103 191 -112 15 -3 27 -10 27 -15 0 -9 68 -7 115 3
17 3 41 9 55 12 14 3 37 7 51 8 14 2 30 5 35 8 5 3 27 9 49 13 22 5 45 9 50
10 95 21 127 25 137 19 7 -4 9 -3 5 1 -7 8 96 36 133 37 8 0 31 4 50 8 39 10
93 19 205 35 28 4 59 9 69 11 34 6 126 7 132 2 6 -6 -365 -571 -378 -576 -4
-2 -8 -8 -8 -14 0 -10 -56 -94 -77 -116 -7 -8 -11 -18 -8 -23 4 -5 3 -9 -2 -9
-4 0 -37 -46 -73 -102 -63 -98 -165 -213 -180 -203 -5 3 -10 2 -12 -2 -5 -14
-98 -85 -98 -76 0 4 -4 3 -8 -2 -4 -6 -47 -40 -97 -75 -81 -57 -127 -91 -162
-120 -7 -6 -16 -10 -21 -10 -4 0 -17 -8 -28 -18 -10 -9 -32 -26 -49 -36 -16
-11 -34 -23 -40 -28 -5 -5 -44 -33 -85 -63 -63 -45 -77 -52 -95 -43 -11 6 -22
11 -25 10 -5 -2 -245 72 -280 85 -8 4 -17 7 -20 8 -3 0 -21 6 -40 12 -19 6
-82 26 -140 43 -58 18 -112 34 -120 38 -8 3 -18 6 -22 7 -5 2 -11 4 -15 5 -5
1 -12 2 -17 1 -5 -1 -12 2 -15 6 -9 13 -231 76 -271 78 -37 1 -79 -15 -102
-39 -7 -7 -49 -53 -93 -101 -114 -124 -130 -141 -232 -251 -50 -54 -104 -113
-120 -130 -32 -36 -180 -196 -248 -269 -26 -27 -51 -61 -56 -74 -12 -31 -19
-146 -23 -367 -2 -94 -6 -176 -10 -182 -3 -6 -2 -13 4 -17 6 -4 7 -11 4 -17
-4 -6 -8 -87 -10 -182 -3 -192 -10 -312 -19 -325 -3 -6 -1 -12 5 -16 6 -4 7
-13 2 -23 -13 -26 -1 -272 18 -381 5 -30 7 -58 4 -63 -3 -4 0 -8 5 -8 6 0 10
-3 9 -7 -7 -34 69 -257 120 -353 35 -65 86 -145 107 -166 7 -7 47 44 138 175
71 102 156 226 190 275 34 48 67 96 72 105 6 9 22 32 38 53 l27 36 -47 100
c-27 54 -49 103 -50 108 -1 5 -12 34 -24 64 -12 30 -25 64 -30 75 -11 28 -29
88 -34 114 -2 11 -7 26 -10 31 -3 6 -1 10 5 10 7 0 8 6 2 17 -5 9 -7 28 -3 42
8 34 7 63 -2 79 -5 6 -5 12 0 12 4 0 8 95 8 210 0 115 4 210 8 210 5 0 5 5 1
12 -4 6 -6 37 -5 67 2 51 6 59 39 88 20 18 42 32 47 33 6 0 24 13 41 28 18 15
42 34 54 42 13 8 36 26 51 38 16 13 29 21 29 18 0 -3 12 5 28 18 64 57 149
112 163 107 20 -8 153 -104 157 -113 2 -5 10 -8 18 -8 8 0 14 -3 14 -8 0 -4 8
-12 19 -17 10 -6 47 -30 81 -55 35 -25 73 -52 86 -60 39 -25 109 -75 114 -81
3 -3 41 -30 85 -61 45 -30 103 -71 130 -90 28 -19 97 -68 155 -108 58 -41 107
-77 110 -80 3 -3 12 -9 21 -15 43 -26 159 -109 168 -119 5 -6 35 -56 66 -111
114 -200 282 -466 298 -473 4 -2 7 -10 7 -18 0 -8 3 -14 8 -14 4 0 12 -8 17
-19 12 -22 94 -141 109 -157 6 -7 27 -33 46 -59 64 -86 299 -315 357 -349 8
-4 23 -16 32 -25 9 -9 47 -38 84 -65 37 -27 67 -54 67 -59 0 -6 3 -8 6 -5 4 5
85 -49 149 -100 14 -11 191 -133 250 -173 28 -18 55 -37 60 -42 11 -10 414
-273 502 -328 32 -20 94 -59 138 -85 44 -27 83 -53 87 -59 4 -5 8 -6 8 -2 0 5
13 -1 28 -12 23 -16 31 -33 42 -88 8 -37 14 -72 15 -78 1 -5 4 -21 8 -35 4
-14 9 -36 11 -50 3 -14 8 -36 11 -50 4 -14 8 -32 9 -40 1 -9 6 -21 10 -28 4
-7 5 -16 2 -19 -3 -3 -1 -12 4 -19 6 -6 10 -16 9 -20 -1 -5 0 -16 4 -24 5 -14
15 -58 20 -90 2 -9 6 -21 11 -28 4 -6 5 -16 1 -21 -3 -5 -1 -12 4 -15 4 -3 11
-20 15 -38 3 -18 25 -91 47 -163 l41 -129 108 -111 c59 -60 166 -169 237 -242
353 -361 699 -716 885 -906 l207 -212 -27 -35 c-14 -19 -29 -37 -32 -40 -3 -3
-30 -36 -60 -75 -30 -38 -59 -75 -65 -81 -5 -6 -23 -28 -40 -50 -16 -21 -43
-54 -60 -75 -16 -20 -41 -51 -55 -69 -14 -17 -33 -41 -43 -53 -10 -12 -28 -35
-40 -50 -24 -31 -79 -100 -105 -132 -10 -11 -33 -40 -52 -65 -39 -50 -40 -52
-107 -135 -26 -33 -52 -65 -58 -71 -5 -7 -28 -35 -50 -64 -22 -28 -80 -82
-130 -120 -92 -70 -220 -190 -265 -249 -14 -18 -30 -38 -37 -45 -56 -61 -156
-263 -169 -341 -1 -11 -5 -29 -8 -41 -4 -22 -9 -87 -7 -116 1 -16 36 -17 491
-17 269 0 492 4 494 8 4 6 14 61 21 116 2 11 8 39 14 62 6 23 11 45 10 50 -1
4 0 15 3 23 3 8 12 49 19 90 7 41 14 80 15 85 1 6 5 28 9 50 9 60 16 78 34 96
9 9 41 45 71 79 30 35 72 81 93 102 20 22 37 41 37 43 0 3 12 17 28 33 29 31
146 161 214 238 24 27 57 63 73 80 17 18 59 65 95 105 36 40 74 83 85 95 11
12 36 40 55 61 19 22 71 79 115 128 347 383 346 381 334 445 -3 19 -36 136
-74 260 -37 124 -73 245 -80 270 -7 25 -27 92 -45 150 -17 58 -33 112 -35 120
-2 8 -8 29 -15 45 -6 17 -11 30 -10 30 1 0 -1 7 -3 15 -22 72 -29 97 -31 110
-2 8 -6 22 -9 30 -4 8 -17 53 -30 99 l-24 85 50 60 c27 34 55 64 61 68 6 4 7
8 3 8 -4 0 -3 6 3 13 38 45 50 61 50 68 0 4 6 14 13 21 30 31 186 304 193 338
0 3 8 21 16 40 23 51 88 240 83 240 -3 0 0 11 5 26 6 14 12 39 15 57 3 18 10
57 17 87 25 125 12 408 -24 535 -6 22 -11 43 -10 48 1 4 -3 7 -9 7 -5 0 -7 4
-4 10 3 5 0 20 -7 32 -6 13 -13 28 -14 33 -5 31 -91 194 -109 207 -7 5 -7 8 0
8 6 0 2 5 -7 11 -10 5 -18 16 -18 24 0 7 -3 15 -7 17 -5 2 -30 30 -58 63 -27
33 -72 82 -100 109 -93 90 -338 276 -364 276 -6 0 -11 4 -11 10 0 5 -11 12
-25 16 -14 3 -25 10 -25 15 0 5 -5 9 -10 9 -6 0 -39 17 -73 38 -35 20 -81 46
-103 57 -21 10 -47 26 -56 34 -10 8 -18 10 -18 5 0 -5 -4 -4 -8 1 -4 6 -34 23
-67 40 -33 16 -85 44 -115 61 -30 18 -58 33 -62 33 -20 3 -172 115 -201 147
-17 20 -45 50 -62 68 -36 38 -224 252 -251 285 -10 13 -26 31 -35 40 -9 9 -40
45 -70 81 -29 36 -56 67 -59 70 -4 3 -64 77 -135 165 -71 88 -135 166 -142
173 -7 7 -13 16 -13 20 0 6 -11 20 -71 90 -10 12 -19 24 -19 27 0 3 -7 13 -15
22 -61 73 -411 565 -424 596 -2 4 13 44 33 88 20 44 39 93 43 109 3 17 10 30
16 30 6 0 8 3 4 6 -3 3 3 28 13 55 11 27 17 49 15 49 -3 0 2 14 10 30 9 17 13
35 10 40 -3 6 -1 10 6 10 7 0 10 2 7 6 -3 3 0 25 8 50 7 24 10 44 7 44 -3 0 0
6 6 14 6 8 11 18 10 22 -2 5 3 28 10 52 26 93 86 409 107 567 2 17 6 44 8 60
9 53 16 118 22 190 4 39 11 75 16 82 6 7 5 14 -2 18 -6 3 -8 10 -5 15 17 27
25 505 11 640 -13 125 -14 133 -31 180 -14 40 -100 197 -115 210 -3 3 -21 30
-40 60 -19 30 -37 57 -40 60 -3 3 -30 41 -60 85 -29 44 -57 82 -60 85 -3 3
-17 21 -30 40 -14 19 -28 40 -32 45 -16 20 -94 123 -118 156 -44 59 -257 279
-372 383 -34 31 -99 81 -143 110 -94 63 -142 79 -200 68z"/>
<path d="M8330 14803 c0 -7 -3 -12 -7 -12 -5 1 -11 0 -15 -1 -5 -1 -12 -4 -18
-5 -5 -1 -11 -3 -12 -5 -2 -1 -10 -3 -18 -5 -48 -10 -82 -19 -245 -66 -202
-57 -283 -79 -305 -83 -18 -3 -98 -26 -120 -34 -8 -3 -24 -7 -35 -9 -11 -2
-27 -6 -35 -10 -8 -3 -23 -7 -32 -8 -10 -2 -19 -3 -20 -5 -2 -1 -10 -3 -18 -5
-13 -3 -76 -26 -135 -50 -11 -4 -23 -7 -27 -7 -5 1 -8 -3 -8 -10 0 -6 -3 -9
-6 -6 -5 6 -37 -7 -214 -89 -88 -40 -220 -113 -270 -149 -116 -83 -285 -251
-311 -308 -7 -14 -15 -26 -19 -26 -4 0 -12 -17 -17 -39 l-10 -39 36 -5 c55 -9
94 -17 111 -23 8 -3 26 -8 40 -10 13 -3 60 -14 105 -24 45 -10 94 -22 110 -25
33 -7 57 -13 65 -15 3 -1 10 -3 15 -5 6 -1 12 -3 15 -4 3 -1 19 -5 35 -7 62
-11 70 -12 70 -14 0 -1 7 -3 15 -5 8 -2 29 -6 45 -10 44 -9 60 -13 60 -15 0
-1 16 -3 35 -4 28 -1 40 5 65 34 65 76 215 228 290 295 17 15 72 47 124 72
l95 45 305 310 c168 171 315 319 325 329 19 19 19 19 1 33 -10 7 -26 13 -34
11 -9 -1 -19 3 -23 9 -5 8 -8 7 -8 -1z"/>
<path d="M15212 11679 c-12 -5 -22 -10 -22 -12 0 -2 15 -37 34 -78 29 -66 46
-104 51 -119 1 -3 7 -18 14 -35 21 -50 97 -283 130 -395 30 -104 35 -138 46
-320 4 -52 8 -117 10 -145 2 -27 6 -97 10 -155 3 -58 8 -125 10 -149 3 -24 7
-91 11 -150 6 -99 8 -133 19 -286 2 -33 6 -96 9 -140 3 -44 8 -118 11 -165 4
-47 8 -116 10 -155 2 -38 4 -70 5 -70 2 0 4 -35 14 -195 5 -83 15 -227 20
-283 3 -37 56 -88 216 -208 90 -68 276 -189 289 -189 5 0 11 -3 13 -7 2 -5 23
-19 48 -32 25 -14 47 -27 50 -30 3 -3 46 -26 95 -51 50 -25 92 -48 93 -52 2
-5 12 -8 22 -8 10 0 20 -3 22 -7 5 -13 99 -54 108 -48 5 3 7 15 5 28 -2 12 -6
87 -9 167 -6 141 -13 243 -21 325 -2 22 -6 72 -9 110 -2 39 -7 102 -11 140 -4
39 -9 84 -10 100 -2 17 -4 30 -5 30 -1 0 -3 23 -5 50 -5 69 -24 238 -41 365
-3 19 -6 49 -8 65 -5 46 -15 116 -22 150 -3 17 -7 44 -9 60 -3 31 -8 59 -26
180 -12 73 -15 93 -24 135 -2 14 -6 36 -9 50 -4 23 -14 81 -21 120 -42 218
-125 548 -162 640 -4 8 -7 18 -8 23 -2 4 -4 9 -5 12 -1 3 -3 8 -5 13 -3 12
-16 45 -30 77 -8 17 -13 33 -12 36 1 3 -4 13 -12 23 -7 9 -21 30 -31 48 -14
27 -219 182 -270 205 -8 4 -17 9 -20 12 -3 3 -25 20 -50 36 -25 17 -49 34 -55
38 -5 5 -39 27 -75 51 -36 23 -101 67 -146 98 -87 60 -145 93 -156 90 -5 -1
-8 4 -8 11 0 8 -4 7 -10 -3 -5 -8 -10 -10 -10 -4 0 13 -18 14 -48 3z"/>
<path d="M12995 9038 c-54 -51 -128 -122 -165 -158 -37 -36 -131 -126 -209
-200 -78 -74 -187 -178 -241 -230 -285 -274 -385 -367 -418 -385 -48 -27 -123
-75 -138 -89 -7 -6 -27 -22 -45 -36 -82 -62 -180 -155 -282 -268 -39 -43 -177
-241 -175 -251 1 -3 -3 -17 -9 -31 -6 -14 -18 -42 -27 -64 -9 -21 -16 -49 -16
-61 0 -22 3 -23 71 -21 39 1 73 -2 75 -6 3 -5 13 -4 22 0 19 9 114 8 130 -2 6
-3 13 -3 15 1 6 9 304 9 313 0 4 -3 14 -3 23 2 18 8 70 7 95 -2 8 -3 17 -3 20
1 3 5 28 7 56 6 l51 -1 39 81 c152 322 145 312 309 451 52 44 106 91 120 104
14 13 42 35 61 50 19 14 47 37 61 51 15 14 37 34 50 45 110 91 267 223 280
235 9 8 36 31 59 50 24 19 54 45 66 58 13 12 26 22 30 22 4 0 16 10 28 23 12
12 46 42 76 67 29 25 64 54 76 65 13 11 37 31 53 43 17 13 47 39 68 58 l37 34
-226 225 c-123 124 -227 225 -231 225 -3 0 -49 -42 -102 -92z"/>
<path d="M6162 6235 c-12 -19 -12 -45 1 -45 9 0 9 -2 0 -8 -12 -8 -13 -29 0
-49 4 -6 3 -15 -3 -18 -8 -5 -8 -11 -1 -19 6 -7 8 -16 4 -20 -4 -3 -8 -16 -10
-27 -2 -14 1 -18 9 -13 10 6 10 5 1 -7 -12 -15 -12 -43 0 -55 4 -4 2 -13 -4
-20 -7 -8 -7 -14 1 -19 6 -3 7 -12 3 -18 -4 -7 -9 -22 -11 -34 -3 -22 0 -23
75 -23 95 -1 11533 -1 11586 0 l37 0 -2 193 -3 192 -5838 0 c-3882 0 -5841 -3
-5845 -10z"/>
</g>
</svg>
